<?xml version="1.0" encoding="utf-8"?>
<!-- Generator: Adobe Illustrator 17.0.0, SVG Export Plug-In . SVG Version: 6.00 Build 0)  -->
<!DOCTYPE svg PUBLIC "-//W3C//DTD SVG 1.1//EN" "http://www.w3.org/Graphics/SVG/1.1/DTD/svg11.dtd">
<svg version="1.1" id="Layer_1" xmlns="http://www.w3.org/2000/svg" xmlns:xlink="http://www.w3.org/1999/xlink" x="0px" y="0px"
	 width="512px" height="512px" viewBox="0 0 512 512" enable-background="new 0 0 512 512" xml:space="preserve">
<path fill-rule="evenodd" clip-rule="evenodd" fill="#7EB5E2" d="M340.739,280.957c0,6.627-5.373,12-12,12H158.826
	c-6.627,0-12-5.373-12-12V115.391c0-6.627,5.373-12,12-12h169.913c6.627,0,12,5.373,12,12V280.957z"/>
<path fill-rule="evenodd" clip-rule="evenodd" fill="#FFFFFF" d="M227.642,158.89c0,4.442,0,24.272,0,24.272h-17.785v29.686h17.785
	v81.456h36.534v-81.456h24.51c0,0,2.298-14.232,3.409-29.795c-3.193,0-27.783,0-27.783,0s0-17.272,0-20.294
	c0-3.034,3.983-7.117,7.92-7.117c3.929,0,12.225,0,19.904,0c0-4.042,0-18.003,0-30.903c-10.255,0-21.92,0-27.061,0
	C226.739,124.739,227.642,154.454,227.642,158.89L227.642,158.89z"/>
</svg>
